<?xml version="1.0" encoding="iso-8859-1"?>
<!-- Generator: Adobe Illustrator 19.0.0, SVG Export Plug-In . SVG Version: 6.00 Build 0)  -->
<svg version="1.1" id="Capa_1" xmlns="http://www.w3.org/2000/svg" xmlns:xlink="http://www.w3.org/1999/xlink" x="0px" y="0px"
	 viewBox="0 0 512 512" style="enable-background:new 0 0 512 512;" xml:space="preserve">
<g>
	<path style="fill:#663A00;" d="M224.642,103.838c-2.956,0-5.782-1.688-7.096-4.549l-21.503-46.82
		c-1.799-3.916-0.082-8.549,3.834-10.348c3.918-1.801,8.549-0.081,10.348,3.834l21.503,46.82c1.799,3.916,0.082,8.549-3.834,10.348
		C226.839,103.608,225.731,103.838,224.642,103.838z"/>
	<path style="fill:#663A00;" d="M287.357,103.838c-1.089,0-2.196-0.23-3.251-0.715c-3.916-1.799-5.633-6.432-3.834-10.348
		l21.503-46.82c1.798-3.916,6.429-5.635,10.348-3.834c3.916,1.799,5.633,6.432,3.834,10.348l-21.503,46.82
		C293.139,102.15,290.312,103.838,287.357,103.838z"/>
</g>
<path style="fill:#884D00;" d="M333.93,190.027c0,41.93-0.01,100.601-0.062,123.845c-0.01,5.972-0.031,9.603-0.052,10.009
	c-1.987,39.121-32.868,70.647-71.739,73.643c-2.008,0.156-4.027,0.239-6.076,0.239c-41.67,0-75.714-32.722-77.815-73.882
	c-0.021-0.406-0.042-3.943-0.052-9.759c-0.052-23.036-0.062-81.863-0.062-123.928c0-26.531,0.01-46.394,0.01-46.394
	c0-21.506,8.729-40.994,22.827-55.092C215.006,74.61,234.484,65.88,256,65.88c12.808,0,24.888,3.09,35.542,8.563
	c25.168,12.922,42.378,39.131,42.378,69.356C333.919,143.8,333.93,163.579,333.93,190.027z"/>
<path style="fill:#AA6100;" d="M333.93,190.027c0,41.93-0.01,100.601-0.062,123.845c-0.01,5.972-0.031,9.603-0.052,10.009
	c-1.987,39.121-32.868,70.647-71.739,73.643c-24.034-12.34-40.817-36.801-42.273-65.319c-0.021-0.406-0.042-3.943-0.052-9.759
	c-0.052-23.036-0.062-81.863-0.062-123.928c0-26.531,0.01-46.394,0.01-46.394c0-21.506,8.729-40.994,22.827-55.092
	c12.756-12.756,29.923-21.121,49.016-22.588c25.168,12.922,42.378,39.131,42.378,69.356
	C333.919,143.8,333.93,163.579,333.93,190.027z"/>
<path style="fill:#D1E7F8;" d="M148.303,338.665c-25.429,25.429-62.677,31.796-94.036,19.113
	c-10.488-4.235-20.31-10.613-28.82-19.113c-33.929-33.919-33.929-88.927,0-122.856c33.929-33.919,164.599-107.135,198.528-73.206
	c3.902,3.912,6.357,9.062,7.574,15.18C241.028,204.791,178.329,308.648,148.303,338.665z"/>
<path style="fill:#C2DFF6;" d="M148.303,338.665c-25.429,25.429-62.677,31.796-94.036,19.113
	c-29.382-34.127-27.894-85.671,4.474-118.039c27.978-27.978,121.764-82.674,172.808-81.956
	C241.028,204.791,178.329,308.648,148.303,338.665z"/>
<path style="fill:#D1E7F8;" d="M486.553,338.665c-9.395,9.395-20.403,16.189-32.14,20.382
	c-30.631,10.945-66.183,4.151-90.717-20.382c-29.798-29.788-91.788-132.324-83.454-179.821c1.155-6.586,3.662-12.111,7.783-16.241
	c33.929-33.929,164.599,39.287,198.528,73.206C520.482,249.738,520.482,304.747,486.553,338.665z"/>
<path style="fill:#C2DFF6;" d="M454.414,359.048c-30.631,10.945-66.183,4.151-90.717-20.382
	c-29.798-29.788-91.788-132.324-83.454-179.821c51.617,1.301,142.438,54.488,169.895,81.935
	C482.579,273.221,484.004,324.921,454.414,359.048z"/>
<path style="fill:#FFCD00;" d="M333.867,313.872c-0.01,5.972-0.031,9.603-0.052,10.009c-2.091,41.139-36.135,73.882-77.815,73.882
	c-41.67,0-75.713-32.722-77.815-73.882c-0.021-0.406-0.042-3.943-0.052-9.759c22.11-15.471,49.016-24.544,78.044-24.544
	C285.049,289.577,311.831,298.556,333.867,313.872z"/>
<path style="fill:#FFEB99;" d="M382.642,353.034c-4.817,65.736-59.68,117.56-126.644,117.56s-121.826-51.825-126.644-117.56
	c6.784-3.808,13.172-8.594,18.947-14.369c8.209-8.209,18.853-21.933,29.809-38.497c0.01,5.452,0.01,10.186,0.021,13.952
	c0.01,5.816,0.031,9.354,0.052,9.759c2.102,41.16,36.145,73.882,77.815,73.882c41.68,0,75.724-32.743,77.815-73.882
	c0.021-0.406,0.042-4.037,0.052-10.009c0.01-3.735,0.01-8.376,0.01-13.713c10.956,16.574,21.61,30.298,29.819,38.507
	C369.471,344.44,375.86,349.226,382.642,353.034z"/>
<path style="fill:#EE8700;" d="M333.877,300.158c0,5.338,0,9.978-0.01,13.713c-22.037-15.315-48.818-24.295-77.69-24.295
	c-29.029,0-55.935,9.073-78.044,24.544c-0.01-3.766-0.01-8.5-0.021-13.952c15.191-22.994,30.964-51.481,41.597-78.315
	c11.497-3.423,23.681-5.265,36.291-5.265c12.61,0,24.794,1.842,36.291,5.265C302.923,248.687,318.698,277.164,333.877,300.158z"/>
<g>
	<path style="fill:#D1E7F8;" d="M129.003,343.597c0,3.173,0.114,6.326,0.354,9.437c6.784-3.808,13.172-8.594,18.947-14.369
		c8.209-8.209,18.853-21.933,29.809-38.497c15.191-22.994,30.964-51.481,41.597-78.315c-15.274,4.547-29.351,11.892-41.628,21.444
		C148.219,266.531,129.003,302.822,129.003,343.597z"/>
	<path style="fill:#D1E7F8;" d="M333.919,243.298c-12.277-9.551-26.355-16.897-41.628-21.444
		c10.633,26.833,26.407,55.31,41.587,78.304c10.956,16.574,21.61,30.298,29.819,38.507c5.775,5.774,12.163,10.561,18.947,14.369
		c0.239-3.111,0.354-6.264,0.354-9.437C382.997,302.822,363.78,266.531,333.919,243.298z"/>
</g>
<g>
</g>
<g>
</g>
<g>
</g>
<g>
</g>
<g>
</g>
<g>
</g>
<g>
</g>
<g>
</g>
<g>
</g>
<g>
</g>
<g>
</g>
<g>
</g>
<g>
</g>
<g>
</g>
<g>
</g>
</svg>
